PathFileType	4	(X/Y/Z)	s11c0103.trc
DataRate	CameraRate	NumFrames	NumMarkers	Units	OrigDataRate	OrigDataStartFrame	OrigNumFrames
200	200	6	48	mm	200	500	2000
Frame#	Time	racr			lacr			c7			jug			rlel			rdr			llel			ldr			s2			lic			ric			lasi			rasi			rpsi			lpsi			rgt			lgt			rth1			rth2			rth3			rth4			rlfc			rmfc			rsh1			rsh2			rsh3			rsh4			rlmal			rcal			rtoe			rmt5			lth1			lth2			lth4			lth3			llfc			lmfc			llmal			lcal			lmt5			lsh1			lsh2			lsh3			lsh4			ltoe			SBIKE			LBIKE			RBIKE			
		X1	Y1	Z1	X2	Y2	Z2	X3	Y3	Z3	X4	Y4	Z4	X5	Y5	Z5	X6	Y6	Z6	X7	Y7	Z7	X8	Y8	Z8	X9	Y9	Z9	X10	Y10	Z10	X11	Y11	Z11	X12	Y12	Z12	X13	Y13	Z13	X14	Y14	Z14	X15	Y15	Z15	X16	Y16	Z16	X17	Y17	Z17	X18	Y18	Z18	X19	Y19	Z19	X20	Y20	Z20	X21	Y21	Z21	X22	Y22	Z22	X23	Y23	Z23	X24	Y24	Z24	X25	Y25	Z25	X26	Y26	Z26	X27	Y27	Z27	X28	Y28	Z28	X29	Y29	Z29	X30	Y30	Z30	X31	Y31	Z31	X32	Y32	Z32	X33	Y33	Z33	X34	Y34	Z34	X35	Y35	Z35	X36	Y36	Z36	X37	Y37	Z37	X38	Y38	Z38	X39	Y39	Z39	X40	Y40	Z40	X41	Y41	Z41	X42	Y42	Z42	X43	Y43	Z43	X44	Y44	Z44	X45	Y45	Z45	X46	Y46	Z46	X47	Y47	Z47	X48	Y48	Z48	
500	2.5000	503.387377	1340.989810	-104.770925	477.991126	1364.908367	-439.704178	425.695478	1471.294170	-252.588650	438.402581	1288.184265	-268.637213	533.476239	1088.064218	21.899168	764.487397	930.051509	-55.411206	449.703997	1057.524855	-523.820831	750.841397	930.389752	-464.993109	-121.753202	1214.775336	-259.006404	96.028792	1226.145534	-462.907401	92.641846	1218.562766	-53.244873	123.050697	1144.265924	-426.473520	113.496995	1156.276135	-88.714123	-82.516196	1290.293262	-205.006455	-78.949710	1282.716110	-296.329555	38.770334	1093.829938	-30.845512	25.868435	1094.492180	-461.169369	156.591460	1018.744215	-17.592396	242.501661	993.774534	-20.320877	303.161241	930.347099	-24.263275	260.596769	1023.210094	-33.750076	389.259857	862.124898	-31.605824	399.178181	841.804378	-163.078402	293.788091	730.881776	-33.324402	253.254697	657.613754	-61.188242	180.532957	610.497927	-70.366957	275.203902	645.760292	-91.516810	82.787565	523.035478	-93.253247	27.011373	554.377996	-143.937700	203.030864	325.761979	-150.462371	136.325260	355.133578	-80.158610	134.881976	986.581046	-469.719091	203.259878	936.746528	-457.978345	231.734171	958.986432	-449.298709	238.938220	854.695074	-449.189125	319.223415	736.848931	-418.575034	315.251001	726.607954	-292.646141	236.519855	306.129921	-428.645536	192.431548	242.424871	-395.998205	401.146167	263.198167	-458.472459	296.589177	610.032093	-447.840389	305.703781	525.882111	-434.995590	273.819945	443.377683	-437.669130	332.872732	524.452968	-408.491246	482.196241	316.436302	-387.237993	-214.274876	951.467819	-257.436208	-17.851164	80.716160	-460.810419	-17.883334	80.816928	-62.065617	
501	2.5050	505.414664	1339.009309	-104.334651	481.616876	1362.922886	-438.164158	429.017075	1469.990114	-251.965839	441.321078	1287.115284	-268.023656	533.222648	1086.280059	22.487640	764.747829	929.699409	-55.459486	447.752152	1055.413334	-522.572801	750.791942	930.283191	-464.802824	-119.055243	1215.132195	-260.363610	98.715061	1225.284199	-463.115045	94.881125	1219.347821	-53.547632	125.366382	1143.267572	-426.696189	115.196155	1157.415664	-89.433126	-78.401412	1290.692609	-206.053201	-76.342747	1283.116421	-297.139777	40.846276	1095.835021	-30.412466	27.437788	1093.612215	-461.295075	158.612923	1021.122337	-16.990204	244.709664	996.650847	-19.369910	305.747667	933.656028	-22.867079	262.674381	1026.204265	-32.747805	392.554860	865.903976	-29.919528	402.879972	845.823003	-161.191092	296.888648	734.982725	-32.108887	256.037059	662.032592	-60.310331	183.265163	615.103465	-69.782154	278.757861	650.699438	-90.078083	85.227595	528.222135	-93.010226	29.499189	559.668174	-143.864244	205.191329	330.879019	-150.435269	138.505515	360.370846	-80.194704	134.546855	983.816495	-469.674612	201.922341	932.728686	-457.709654	230.807214	954.439286	-449.066395	235.912244	850.079055	-448.552735	314.307908	731.081419	-417.836936	309.994051	720.961091	-292.049910	233.757352	300.145149	-428.131522	190.079181	236.219196	-395.758670	398.655697	257.813369	-458.267362	292.328442	604.391716	-447.051292	301.814888	520.530270	-434.748179	270.277097	437.702755	-437.215547	328.816276	519.032431	-407.755726	479.516863	311.499889	-387.027025	-214.257773	951.498857	-257.409938	-17.863576	80.736298	-460.824238	-17.863817	80.823782	-62.051889	
502	2.5100	507.272534	1337.248856	-103.807950	485.439472	1361.148058	-436.190071	432.319616	1468.878361	-251.194001	444.276370	1286.082629	-267.424390	533.267659	1084.659251	22.876130	765.125430	929.344848	-55.495925	445.753299	1053.255361	-521.103066	750.893510	930.157571	-464.582777	-116.897591	1215.942948	-260.717056	101.503183	1224.352616	-463.201479	97.076960	1220.281020	-53.863988	127.681038	1142.090907	-426.601405	116.970951	1158.538576	-90.053529	-75.745944	1291.457956	-206.987942	-73.623234	1283.506114	-298.052480	42.916805	1097.826051	-30.086245	29.026541	1092.632525	-461.247742	160.733599	1023.488151	-16.381921	246.931018	999.641317	-18.498541	308.404365	936.879815	-21.607256	264.573884	1029.297297	-31.681523	395.917641	869.688533	-28.254488	407.796458	849.590641	-157.747599	300.085728	739.059904	-31.020823	259.641779	666.492181	-59.026956	186.029991	619.780530	-69.181790	281.517359	654.861195	-89.440299	87.815172	533.382898	-92.822898	31.965519	565.128308	-143.884315	207.547268	335.984376	-150.483842	140.947515	365.514600	-80.207397	134.236361	981.114445	-469.561556	200.544142	928.708034	-457.287456	229.832051	949.895647	-448.689016	232.813306	845.440951	-447.828072	309.289674	725.456539	-417.066541	304.441935	715.388365	-291.356894	230.963101	294.262465	-427.641291	187.564788	230.331925	-395.524092	396.104060	252.632928	-458.042181	287.877447	599.071705	-446.418216	297.894331	514.794791	-433.618808	266.704888	432.158561	-436.659922	324.694515	513.751097	-406.905550	476.973962	306.429616	-386.870440	-214.199957	951.522471	-257.326112	-17.797861	80.728582	-460.778076	-17.821412	80.816686	-62.022122	
503	2.5150	508.925327	1335.696090	-102.960067	488.950786	1358.948453	-434.345283	435.561489	1467.951370	-250.231518	447.327275	1285.090420	-266.607880	533.531281	1083.222685	23.069741	765.701797	928.939025	-55.495833	444.056879	1051.572325	-519.575896	751.102034	929.944066	-464.207093	-114.599418	1216.759797	-261.243909	104.287819	1223.421168	-463.215897	99.195619	1221.327321	-54.162231	130.290737	1141.222342	-426.748229	118.670486	1159.837460	-90.688898	-72.958222	1292.383693	-207.959962	-70.972216	1284.032937	-298.918469	44.922222	1099.888917	-29.846529	30.554898	1091.782379	-461.158648	162.867806	1025.927417	-15.783461	249.124261	1002.527599	-17.695998	310.987823	940.182110	-20.411442	266.688051	1032.250537	-30.826714	399.181596	873.557208	-26.740562	411.408930	853.339062	-156.220473	303.289943	743.079204	-29.989343	262.508173	670.625591	-58.345242	188.919441	624.357948	-68.677850	284.702630	658.465914	-88.845495	90.484975	538.470713	-92.724074	34.774967	570.984852	-143.068542	210.014218	341.072614	-150.531998	143.488960	370.603119	-80.142229	133.724621	978.484535	-469.346242	198.917956	924.771784	-456.868154	228.678346	945.418363	-448.343385	229.484820	840.970720	-447.078598	304.081671	720.029979	-416.325451	298.634674	710.007984	-290.691265	228.051613	288.592312	-427.252191	184.982620	224.497038	-395.323410	393.404209	247.562978	-457.756121	283.339091	593.866040	-445.760713	293.510792	509.759426	-433.120620	262.944556	426.878044	-436.120007	320.368517	508.781487	-406.076083	474.072409	301.548945	-386.637653	-214.174364	951.534219	-257.249545	-17.782493	80.784129	-460.812910	-17.835840	80.840308	-62.034492	
504	2.5200	510.415762	1334.805749	-101.989502	492.554559	1357.124785	-432.340378	438.633654	1467.226873	-249.343296	450.269803	1284.530629	-265.744659	533.967479	1082.164034	23.156464	766.239596	928.626897	-55.785634	442.864382	1050.628259	-518.129580	751.432359	929.704416	-463.837365	-112.405697	1217.674922	-261.699567	107.040893	1222.709311	-463.337208	101.355037	1222.380111	-54.592023	132.818916	1140.429949	-426.929409	120.408859	1161.170321	-91.312794	-70.530173	1293.416610	-208.759857	-68.393113	1284.606449	-299.802034	46.931432	1101.961759	-29.581840	32.015722	1091.065498	-461.182217	164.913284	1028.441770	-15.318007	251.337435	1005.535695	-16.930890	313.631841	943.566663	-19.271856	268.703147	1035.371975	-30.147519	402.462554	877.502321	-25.340121	415.134252	857.295163	-155.111026	306.559337	747.206768	-29.063902	265.663349	674.984701	-57.682904	192.027592	628.716855	-68.158268	288.787553	663.067032	-87.839375	93.290072	543.446852	-92.483231	37.993277	575.555321	-143.607018	212.754710	346.120918	-150.524830	146.397475	375.970073	-79.762373	133.102554	976.014116	-469.249323	197.175689	921.004988	-456.545907	227.325861	941.067483	-448.100222	226.082604	836.362319	-445.999899	298.762718	714.834961	-415.660379	292.678921	704.887461	-290.034339	225.065216	283.298033	-427.011894	182.155948	219.206350	-395.085774	390.528240	242.528901	-457.577367	278.682860	588.989022	-445.196267	289.165012	504.928450	-432.601701	259.046582	421.832591	-435.755073	315.942436	504.017606	-405.423941	471.177436	296.565986	-386.462902	-214.185739	951.514744	-257.130949	-17.790071	80.748667	-460.776701	-17.805286	80.841831	-62.029023	
505	2.5250	511.705883	1334.112024	-100.755718	496.178334	1355.381190	-430.131181	441.599666	1466.609380	-248.469698	453.292721	1283.913640	-264.832121	534.732477	1080.995785	23.112137	766.775516	928.420248	-56.380666	442.423217	1050.437610	-517.026000	751.812502	929.410093	-463.515119	-110.048706	1218.495143	-262.444737	109.907401	1222.141988	-463.628787	103.159371	1223.859582	-54.974849	135.379219	1139.775842	-427.116053	122.110256	1162.486269	-91.955394	-68.399414	1294.814501	-209.530225	-65.953066	1285.261540	-300.607222	48.922628	1104.001864	-29.357777	33.321248	1090.371129	-461.122917	166.979117	1030.940750	-14.884868	253.571351	1008.495324	-16.236009	316.281856	947.043920	-18.185933	270.827935	1038.383137	-29.447183	405.822511	881.570506	-24.069651	418.943127	861.249254	-153.965984	309.904392	751.412154	-28.240653	269.012216	679.365499	-56.946261	195.209332	633.171813	-67.694937	291.161144	666.948815	-87.734361	96.225939	548.376711	-92.349411	41.104531	580.412023	-143.637832	215.742205	350.963060	-150.453584	149.349194	380.898070	-79.911381	132.303167	973.600966	-469.096050	195.288021	917.350665	-456.261777	225.815795	936.858301	-447.778798	222.477282	832.249664	-445.378660	293.302796	709.991573	-415.027619	286.745038	699.680494	-289.416715	222.042850	278.305164	-426.732046	179.227430	214.157035	-394.849707	387.548561	237.712790	-457.451792	273.947353	584.258269	-444.642206	284.798169	500.297957	-432.010596	255.038099	417.091151	-435.382437	311.429420	499.540939	-404.716485	468.315447	291.644535	-386.386721	-214.197294	951.579113	-257.171748	-17.779532	80.835891	-460.820487	-17.808273	80.842285	-62.017118	
